<?xml version="1.0" encoding="UTF-8"?>
<svg id="Layer_1" xmlns="http://www.w3.org/2000/svg" baseProfile="tiny" version="1.2" viewBox="0 0 284.748 239.543">
  <!-- Generator: Adobe Illustrator 30.2.1, SVG Export Plug-In . SVG Version: 2.1.1 Build 1)  -->
  <g>
    <path d="M51.452,134.781l11.245-29.906,42.115-.033.048,59.743-76.315-.078c-7.747-.008-14.317-3.413-19.622-8.577C3.34,150.386-.002,143.437,0,135.28L.032,28.906C.037,13.625,13.871.025,28.653.022l106.671-.022c15.595-.003,29.616,12.174,29.719,27.81l.21,31.86-23.286.082c-9.012.21-17.284,3.72-23.584,10.481l-13.503-40.389h-42.827l-35.66,104.757,25.059.181h0Z" fill="#80ade1"/>
    <polygon points="97.754 89.425 67.346 89.56 82.636 45.729 97.754 89.425" fill="#80ade1"/>
  </g>
  <g>
    <path d="M257.308,239.307l-108.772.236c-14.564.032-28.381-13.693-28.388-28.875l-.045-106.211c-.007-15.698,13.644-29.412,28.648-29.418l106.533-.042c16.088-.006,29.504,13.655,29.462,29.906l-.273,107.003c-.036,13.987-12.783,27.371-27.167,27.402h.002ZM252.4,220.206c.003-7.419,1.137-14.433,2.769-21.544-11.758-1.083-23.51-5.563-35.391-9.458,9.423-11.276,16.464-24.498,18.699-39.193l20.484-.081-.009-16.31-48.076-.062-.045-32.143-16.782-.095-.171,32.264-47.389.031-.009,16.305,18.729.133c2.829,14.629,9.549,27.611,19.254,39.078-10.519,4.563-22.926,8.463-34.365,9.541,1.382,7.157,2.988,14.092,2.936,21.546,15.315-.283,35.539-9.317,49.039-16.964,13.762,7.721,34.234,16.785,50.326,16.95v.002Z" fill="#80ade1"/>
    <path d="M213.87,162.396c-2.806,6.494-6.596,12.135-11.841,16.793-8.653-7.752-13.622-18.051-15.648-29.185l31.359-.033c-.617,4.253-2.067,8.175-3.87,12.425Z" fill="#80ade1"/>
  </g>
</svg>